<?xml version="1.0" encoding="UTF-8"?>
<svg version="1.1" xmlns="http://www.w3.org/2000/svg" width="1163" height="1399">
<path d="M0 0 C4.82620869 0.55835494 8.69234792 2.07207813 12.9765625 4.25390625 C14.36454996 4.94228735 15.75257242 5.63059789 17.140625 6.31884766 C17.86958984 6.68391418 18.59855469 7.04898071 19.34960938 7.42510986 C37.60054555 16.54813013 56.14426916 24.91981275 74.84912109 33.06164551 C76.90778976 33.95977184 78.96411553 34.86301215 81.01953125 35.76855469 C122.00992135 53.81782373 163.82560276 70.1536552 205.78504944 85.79901123 C208.17213193 86.69069607 210.55643979 87.58950332 212.94067383 88.48876953 C215.36875464 89.40220924 217.79429221 90.26887772 220.25268555 91.10107422 C225.86884876 93.07178379 228.82047879 95.21169769 231.5625 100.625 C232.1510376 101.70334106 232.1510376 101.70334106 232.75146484 102.8034668 C234.20778248 105.516178 235.60363836 108.25594113 237 111 C237.60730957 112.16966309 238.21461914 113.33932617 238.84033203 114.54443359 C254.68181007 145.06231589 268.20965004 176.52664712 281.41625977 208.25341797 C285.98599461 219.22683774 290.6116417 230.17162758 295.375 241.0625 C295.65507904 241.70472504 295.93515808 242.34695007 296.22372437 243.00863647 C299.23007004 249.89272444 302.31878527 256.72616637 305.56640625 263.5 C306.13952421 264.70432737 306.7126044 265.90867271 307.28564453 267.11303711 C308.3523159 269.3404979 309.43429498 271.56072226 310.53466797 273.77172852 C314.72580007 282.51100449 313.57980617 287.56935411 310.62768555 296.51586914 C301.31475646 324.8129332 295.4765519 354.24902921 289.01254272 383.2928772 C275.13377461 445.63691586 275.13377461 445.63691586 264 473 C263.34 473 262.68 473 262 473 C261.3601097 471.13002931 260.73922948 469.25355587 260.125 467.375 C259.77695312 466.33085938 259.42890625 465.28671875 259.0703125 464.2109375 C248.8949876 428.00603779 259.68713015 388.08055647 266.95703125 352.28613281 C271.61611551 329.34448394 271.61611551 329.34448394 275 306.1875 C275.1247168 305.1444873 275.24943359 304.10147461 275.37792969 303.02685547 C276.32652098 294.07508626 275.01769288 287.33326897 271.421875 279.1484375 C271.05921539 278.30508347 270.69655579 277.46172943 270.32290649 276.59281921 C269.14046721 273.84976662 267.94564492 271.11231928 266.75 268.375 C265.92219887 266.46432352 265.09489169 264.55343296 264.26806641 262.64233398 C257.64674089 247.36741657 250.89902717 232.15159483 244 217 C243.39434023 215.66814436 242.78870965 214.33627545 242.18310547 213.00439453 C237.84352734 203.46519481 233.48113343 193.93654116 229.10778809 184.41278076 C227.95316346 181.89798924 226.79931833 179.38284092 225.64550781 176.86767578 C223.6367051 172.48985441 221.62483788 168.11345181 219.6109314 163.73797607 C218.84182826 162.06631538 218.07343101 160.39432971 217.30581665 158.72198486 C215.21488507 154.16816408 213.10447705 149.62435629 210.97122192 145.09020996 C210.02250576 143.04843564 209.10606266 140.99449006 208.19311523 138.93652344 C205.00519498 131.91741692 202.37548007 127.09189398 195.1875 123.875 C194.41889648 123.49069824 193.65029297 123.10639648 192.85839844 122.71044922 C190.25822456 121.42873807 187.63179293 120.21531988 185 119 C183.03158177 118.04888053 181.06417216 117.09567147 179.09765625 116.140625 C167.92697667 110.7920036 156.5872863 105.91740569 145.0859375 101.328125 C144.44954472 101.07377056 143.81315193 100.81941612 143.15747452 100.55735397 C129.49658358 95.10682266 115.70171413 90.04874149 101.86541748 85.06402588 C94.99837565 82.58951982 88.13956107 80.09233285 81.28125 77.59375 C80.27441225 77.22706396 80.27441225 77.22706396 79.24723434 76.85297012 C67.9130269 72.72269843 56.61363822 68.50945756 45.375 64.125 C44.31454468 63.71146774 44.31454468 63.71146774 43.23266602 63.2895813 C33.66288986 59.54523387 24.16393458 55.63807161 14.80224609 51.39697266 C12.8916266 50.54339613 10.94870567 49.76263093 9 49 C8.34 49.33 7.68 49.66 7 50 C7.50913691 54.63654011 8.66858034 57.49098872 11.3125 61.3125 C17.64440065 71.00578001 20.38097156 78.14355047 19 90 C18.60298873 91.38817255 18.17608483 92.76793016 17.72998047 94.14111328 C15.63001743 100.99618335 14.06712981 107.97292168 12.46305847 114.95614624 C11.86833208 117.54487744 11.26954751 120.13264259 10.6697998 122.72021484 C9.79825992 126.48161698 8.92817207 130.2433505 8.05917358 134.00534058 C0.27431053 167.69122785 -7.6663568 201.33719175 -15.8125 234.9375 C-16.26763126 236.81569362 -16.72276023 238.6938878 -17.17788696 240.57208252 C-21.42381619 258.08963065 -25.68529742 275.60339173 -29.95068359 293.11621094 C-47.78871589 366.35746799 -65.51295867 439.62701063 -81.77135468 513.23825073 C-82.30814694 515.66779785 -82.84604315 518.09709857 -83.38409424 520.52636719 C-86.62211282 535.15828375 -89.8282644 549.78761897 -92.625 564.51171875 C-96.13466926 582.88437738 -99.81791256 598.15007995 -109.54199219 614.39648438 C-123.45170599 639.23459355 -130.49083961 669.59615194 -138.4375 696.8125 C-168.33289759 799.10222892 -168.33289759 799.10222892 -202 825 C-201.43006333 819.78902252 -200.58156562 814.90893666 -199.21606445 809.83398438 C-199.03618264 809.15972538 -198.85630083 808.48546638 -198.67096806 807.7907753 C-198.07356878 805.55701229 -197.46851038 803.32540313 -196.86328125 801.09375 C-196.43176694 799.48759865 -196.00067647 797.88133338 -195.56997681 796.27496338 C-194.40210092 791.92531509 -193.22716769 787.57760188 -192.05070114 783.23027039 C-191.0568347 779.5544103 -190.06702439 775.87746246 -189.07703114 772.20055771 C-181.67149449 744.70217169 -174.13988457 717.23893632 -166.56842041 689.78585815 C-150.44375802 631.31720917 -134.68131806 572.75015756 -119.52238464 514.02330017 C-118.99399607 511.97674556 -118.4651177 509.930318 -117.93615723 507.88391113 C-101.91762294 445.89417428 -87.12908876 383.67164607 -74 321 C-73.61938416 319.18550354 -73.61938416 319.18550354 -73.2310791 317.33435059 C-57.01157871 239.85383083 -44.2343291 161.74434869 -36 83 C-37.41713763 83.44623066 -38.83207847 83.89944062 -40.24609375 84.35546875 C-41.0342749 84.60707764 -41.82245605 84.85868652 -42.63452148 85.11791992 C-52.33549961 88.73538653 -56.78824723 97.03928707 -61 106 C-63.40210475 111.93521279 -65.24435184 118.0719061 -67.125 124.1875 C-76.39286728 154.08791833 -76.39286728 154.08791833 -89.25 162 C-92 163 -92 163 -95 162 C-95.80078125 160.28515625 -95.80078125 160.28515625 -96.3125 158.0625 C-96.58513672 156.99708984 -96.58513672 156.99708984 -96.86328125 155.91015625 C-97.3204663 146.17864596 -92.97815196 136.42886731 -89.921875 127.36523438 C-85.9240707 115.24502545 -82.05109462 101.58280166 -87.875 89.375 C-90.05827331 85.79645942 -90.05827331 85.79645942 -93 83 C-101.94764997 82.71621259 -110.1449832 88.40527715 -117.25 93.1875 C-131.99552731 108.26815293 -134.07692507 129.04526959 -136 149 C-139.40223222 147.86592259 -139.7558437 147.30869267 -141.5625 144.375 C-141.97628906 143.72273437 -142.39007813 143.07046875 -142.81640625 142.3984375 C-150.87210829 126.07434163 -145.41693928 104.83960277 -140.65625 88.26953125 C-140.43283936 87.48989014 -140.20942871 86.71024902 -139.97924805 85.90698242 C-139.55604196 84.45853597 -139.11897746 83.01401026 -138.66333008 81.57543945 C-136.72898991 75.144857 -136.36153703 68.68233461 -136 62 C-140.21121222 63.11322047 -140.21121222 63.11322047 -144.42221069 64.22724915 C-148.20988611 65.2296501 -151.9980505 66.2301352 -155.78710938 67.22729492 C-163.21282244 69.18428032 -170.63047438 71.16066736 -178.0234375 73.23828125 C-189.18358068 76.35858534 -200.39968925 79.44507477 -211.8125 81.5 C-213.32203247 81.77626221 -213.32203247 81.77626221 -214.86206055 82.05810547 C-222.56914043 83.17421264 -229.51055155 82.75104051 -237.21875 81.93359375 C-261.65917454 79.21263764 -261.65917454 79.21263764 -283.47166443 88.62513733 C-293.5100856 97.32429241 -302.10271043 107.43134587 -310.28445435 117.85957336 C-314.57655198 123.21467428 -319.21989385 128.27338678 -323.875 133.3125 C-327.9656056 137.79797552 -331.84817843 142.40580544 -335.66015625 147.12890625 C-337.73719814 149.67753027 -339.8494847 152.18705564 -341.98535156 154.68603516 C-348.2035032 161.96385073 -354.15497112 169.42028302 -360 177 C-360.61037109 177.78971191 -361.22074219 178.57942383 -361.84960938 179.39306641 C-370.28296279 190.32187656 -378.52876008 201.344648 -386.39257812 212.69042969 C-388.1613254 215.231795 -389.94716051 217.76065297 -391.734375 220.2890625 C-401.58119963 234.26426312 -410.909893 248.52272052 -420 263 C-420.56283691 263.89396484 -421.12567383 264.78792969 -421.70556641 265.70898438 C-435.77413677 288.09368054 -449.13356712 310.90565082 -462 334 C-462.62374512 335.11600586 -463.24749023 336.23201172 -463.89013672 337.38183594 C-472.94987616 353.59862318 -481.69350913 369.94374932 -490.17260742 386.47265625 C-491.49165741 389.01876638 -492.8210835 391.55710125 -494.1652832 394.08984375 C-500.86296877 406.71257522 -507.30468227 419.45579915 -513.68579102 432.24121094 C-515.4288228 435.732619 -517.17610852 439.22187414 -518.92382812 442.7109375 C-525.71120119 456.28167389 -532.35719632 469.91153034 -538.86611938 483.61785889 C-540.38448073 486.80774584 -541.92069643 489.98858717 -543.4609375 493.16796875 C-549.32037824 505.26856322 -555.07170187 517.41191279 -560.70922852 529.61743164 C-566.310132 541.71951668 -572.04326718 553.75798444 -577.77539062 565.79833984 C-581.59324964 573.81954897 -585.40526895 581.84312262 -589.17578125 589.88671875 C-589.67130997 590.94381294 -589.67130997 590.94381294 -590.17684937 592.02226257 C-590.83439777 593.4252397 -591.4919196 594.82822928 -592.14941406 596.23123169 C-598.65375654 610.10728439 -605.28957057 623.91512678 -612.00756836 637.68896484 C-612.71602164 639.14158276 -613.42443709 640.59421911 -614.1328125 642.046875 C-614.47411697 642.74676544 -614.81542145 643.44665588 -615.16706848 644.16775513 C-617.46816896 648.89239434 -619.73382743 653.63275451 -621.97998047 658.38378906 C-631.29960157 678.09329911 -641.21594227 697.51837887 -651 717 C-659.94315855 700.49911758 -649.7045488 666.91409724 -644.91796875 650.22802734 C-636.4353107 621.83696864 -624.16152392 595.19221301 -611.203125 568.609375 C-598.71519816 542.95070637 -587.04931971 516.85559184 -575.31640625 490.84375 C-565.49797836 469.09109028 -555.32473789 447.51669182 -545 426 C-544.47079956 424.89615967 -544.47079956 424.89615967 -543.9309082 423.77001953 C-535.05487273 405.26093062 -525.98086651 386.85062579 -516.82647705 368.47772217 C-515.75537465 366.32749995 -514.68545855 364.17668627 -513.61688232 362.02520752 C-507.20438346 349.12306733 -500.56606613 336.38217887 -493.61401367 323.76245117 C-490.66672406 318.41122483 -487.84603596 313.0003648 -485.0625 307.5625 C-479.53837291 296.88995593 -473.69934803 286.41736385 -467.71826172 275.99511719 C-465.95365509 272.91921579 -464.19743618 269.83861698 -462.44140625 266.7578125 C-445.28150019 236.74170482 -427.02361172 207.47348309 -407.875 178.6875 C-407.12571732 177.55948975 -407.12571732 177.55948975 -406.36129761 176.40869141 C-399.09043356 165.47287664 -391.62127654 154.69420509 -384 144 C-383.0411792 142.64805542 -383.0411792 142.64805542 -382.06298828 141.26879883 C-374.52580122 130.65665287 -366.69125949 120.30700463 -358.63720703 110.08251953 C-357.10383635 108.13207934 -355.57941765 106.17507436 -354.05859375 104.21484375 C-348.73513841 97.36706333 -343.25598305 90.68336985 -337.62109375 84.08984375 C-335.17696666 81.22422306 -332.80304266 78.30594478 -330.4375 75.375 C-326.54800277 70.59007895 -322.45286043 66.02965618 -318.26171875 61.5078125 C-315.92653543 59.08161886 -315.92653543 59.08161886 -314.3359375 56.21484375 C-310.64531894 52.71554488 -306.83822571 53.39016391 -301.9375 53.4375 C-275.91271043 52.96247395 -251.09266588 46.78194946 -226.09375 40.0859375 C-225.11618744 39.82431824 -224.13862488 39.56269897 -223.13143921 39.29315186 C-218.21844989 37.97699838 -213.3077027 36.65341721 -208.40087891 35.31445312 C-148.20369428 18.97517054 -148.20369428 18.97517054 -123.96484375 31.578125 C-112.53528312 38.408172 -103.88925554 48.08008281 -100 61 C-72.15857046 64.48377764 -49.79255988 60.39332646 -23.5925293 50.30297852 C-17.45149046 47.98744744 -12.57838352 46.39313805 -6 47 C-6.39533626 41.52771383 -6.88589033 36.17817389 -8.0625 30.8125 C-9.91220991 21.91427431 -9.48206174 13.47560854 -4.46484375 5.5859375 C-3.03121149 3.66764942 -1.564445 1.81252851 0 0 Z " fill="#050708" transform="translate(653,574)"/>
<path d="M0 0 C2.31781069 0.5918929 4.59759795 1.25993137 6.88330078 1.96582031 C7.74157471 2.22838623 8.59984863 2.49095215 9.48413086 2.76147461 C36.42827329 11.30226848 62.59925837 23.62106573 82.94580078 43.59082031 C83.51814453 44.15027344 84.09048828 44.70972656 84.68017578 45.28613281 C92.46660059 53.59432836 96.13174419 63.43421555 95.94580078 74.59082031 C82.61879077 72.55788658 72.56224165 64.74949386 62.04394531 56.86962891 C44.33029095 42.71149239 44.33029095 42.71149239 22.94580078 38.59082031 C20.93785745 39.23316604 18.93644992 39.89673065 16.94580078 40.59082031 C16.87506545 55.5097603 16.82250205 70.42868711 16.79036427 85.3477602 C16.77503168 92.2782032 16.7542103 99.2085408 16.71948242 106.13891602 C16.68587084 112.84983984 16.66885685 119.5606551 16.66116905 126.27165794 C16.65570332 128.80878591 16.64503545 131.34590919 16.62861061 133.88298988 C16.22483887 198.94825698 37.35803374 256.04538241 68.07861328 312.44238281 C82.95073516 339.7834391 96.99766985 367.42650517 107.94580078 396.59082031 C107.9603833 395.832771 107.97496582 395.07472168 107.98999023 394.29370117 C109.06975196 343.68988561 118.80924567 293.38501556 154.94580078 255.59082031 C155.55552734 254.91792969 156.16525391 254.24503906 156.79345703 253.55175781 C171.27483169 238.11725658 190.75911607 228.91277633 210.80078125 223.2109375 C213.80813848 222.34152168 216.77970396 221.36602597 219.75830078 220.40332031 C248.75354785 211.69746095 278.02189935 214.96141645 304.88330078 228.90332031 C314.56121491 234.1472272 322.71488072 240.32691994 329.21533203 249.29785156 C331.08370633 251.77355295 333.12600548 253.96444394 335.25830078 256.21582031 C359.89985221 283.41372317 367.65611038 318.77847224 365.94580078 354.59082031 C363.90748822 380.46755584 355.07508863 404.83876742 342.94580078 427.59082031 C342.63562012 428.18314453 342.32543945 428.77546875 342.00585938 429.38574219 C335.04274066 442.59762476 326.12379713 454.51320864 315.95361328 465.43066406 C314.07092084 467.45620671 312.28843017 469.53786423 310.50830078 471.65332031 C304.33006271 478.73047062 297.06899678 484.6682932 289.56298828 490.27832031 C289.02931641 490.71144531 288.49564453 491.14457031 287.94580078 491.59082031 C287.94580078 491.92082031 287.94580078 492.25082031 287.94580078 492.59082031 C303.41769292 496.13466153 318.18718062 492.22874681 331.44970703 483.97363281 C337.78466924 479.79273446 343.37142411 474.7170433 348.94580078 469.59082031 C349.91646484 468.70257568 349.91646484 468.70257568 350.90673828 467.79638672 C358.34068269 461.06687058 358.34068269 461.06687058 365.45019531 454.00341797 C376.10587465 442.79480247 389.356671 434.44216455 402.25830078 426.09082031 C403.73720166 425.12656718 405.21571826 424.1617244 406.69384766 423.19628906 C411.10497214 420.31821023 415.52479539 417.45368858 419.94580078 414.59082031 C421.47032953 413.60226491 422.9948249 412.61365801 424.51928711 411.625 C431.66069512 406.99601239 438.80483824 402.3729088 446.00830078 397.84082031 C446.78101318 397.35387695 447.55372559 396.86693359 448.34985352 396.36523438 C450.88066019 394.7718839 453.41296423 393.18094191 455.94580078 391.59082031 C456.85716797 391.01847656 457.76853516 390.44613281 458.70751953 389.85644531 C487.71376204 371.65334633 516.91629914 353.76483047 546.30200195 336.1809082 C553.43106492 331.91068242 560.53282772 327.59583815 567.63330078 323.27832031 C576.55397375 317.85410777 585.48831961 312.45414437 594.44580078 307.09082031 C618.54699701 292.65388917 642.522486 278.01178891 666.40167236 263.210495 C668.81323351 261.71628367 671.22620354 260.22435677 673.63934326 258.73269653 C675.34789124 257.67523611 677.05434013 256.61438657 678.76074219 255.5534668 C679.78989746 254.91739502 680.81905273 254.28132324 681.87939453 253.62597656 C682.7874585 253.06273682 683.69552246 252.49949707 684.63110352 251.91918945 C686.94580078 250.59082031 686.94580078 250.59082031 689.94580078 249.59082031 C690.63620653 247.93384653 691.29886428 246.26524421 691.94580078 244.59082031 C693.2644635 242.91252231 694.59660546 241.24467264 695.94580078 239.59082031 C696.27580078 238.60082031 696.60580078 237.61082031 696.94580078 236.59082031 C668.23580078 236.59082031 639.52580078 236.59082031 609.94580078 236.59082031 C613.43520676 232.22906284 615.83061022 230.09848367 620.57080078 227.65332031 C621.55705444 227.14128052 621.55705444 227.14128052 622.56323242 226.61889648 C637.76769984 218.99615716 654.30160744 215.53859765 670.94580078 212.59082031 C671.68636719 212.45659668 672.42693359 212.32237305 673.18994141 212.18408203 C693.09279958 208.76598247 730.93651025 204.80400567 748.94580078 215.59082031 C746.82383023 219.70993962 744.10028485 222.54263512 740.81689453 225.72363281 C739.02845088 227.50834277 737.3924151 229.35254256 735.75830078 231.27832031 C729.09438139 238.99285763 721.75349759 246.21887592 713.99267578 252.82519531 C711.48865229 254.98515451 709.0658238 257.22570024 706.63330078 259.46582031 C701.23088621 264.38653811 695.64411219 269.01874584 689.94580078 273.59082031 C688.82559562 274.50307321 687.70582373 275.41585834 686.58642578 276.32910156 C652.74765034 303.81964141 615.77852028 327.36383543 578.94580078 350.59082031 C577.31285472 351.62316116 575.68004104 352.65571144 574.04736328 353.68847656 C567.84147378 357.61239108 561.631238 361.52939018 555.41845703 365.44238281 C551.45972105 367.93664467 547.50491128 370.43704768 543.55224609 372.94091797 C541.76086126 374.07488001 539.96848809 375.20728174 538.17529297 376.33837891 C525.2289031 384.51125175 512.43378231 392.88055981 499.75830078 401.46582031 C498.79966125 402.11428421 498.79966125 402.11428421 497.82165527 402.77584839 C486.01545289 410.77071803 474.33233258 418.94305216 462.94580078 427.52832031 C462.28410889 428.0264624 461.62241699 428.52460449 460.94067383 429.0378418 C443.60168797 442.13468408 427.16502369 456.13618878 410.94580078 470.59082031 C413.72996045 471.51887354 415.78107483 471.80284225 418.68017578 471.98535156 C449.4627418 474.11321463 477.91649998 480.48156966 505.94580078 493.59082031 C506.64044434 493.91131348 507.33508789 494.23180664 508.05078125 494.56201172 C523.58518228 501.78846986 538.31243784 510.81548432 552.69580078 520.09082031 C553.3094751 520.47544434 553.92314941 520.86006836 554.55541992 521.25634766 C558.21616084 523.67706622 559.66473412 525.43325719 560.94580078 529.59082031 C561.20458984 532.55078125 561.20458984 532.55078125 561.21142578 535.82519531 C561.21561523 537.03095215 561.21980469 538.23670898 561.22412109 539.47900391 C561.21477539 540.75340332 561.20542969 542.02780273 561.19580078 543.34082031 C561.1890332 544.64744629 561.18226563 545.95407227 561.17529297 547.30029297 C561.00466159 563.30591277 560.16227878 580.92917311 552.94580078 595.59082031 C549.66056008 598.58749257 546.10522833 600.36348158 541.75830078 601.21582031 C537.74037417 600.32294773 536.4214937 598.86944066 533.94580078 595.59082031 C528.69668121 585.7260956 528.66572186 572.14991882 529.31689453 561.29003906 C530.58046428 549.11788116 530.58046428 549.11788116 527.87060547 537.54199219 C524.88244917 534.2810495 521.18543044 532.77328317 517.06689453 531.35058594 C514.90032597 530.57453145 512.90796585 529.63831887 510.85205078 528.60644531 C490.93655401 518.76894842 469.08560279 513.40612266 447.75830078 507.59082031 C446.67248718 507.29333893 445.58667358 506.99585754 444.46795654 506.68936157 C441.34410263 505.83631528 438.21779654 504.99302133 435.09033203 504.15332031 C433.66828712 503.7648719 433.66828712 503.7648719 432.21751404 503.36857605 C431.33354446 503.13383072 430.44957489 502.89908539 429.53881836 502.65722656 C428.76959549 502.4504126 428.00037262 502.24359863 427.20783997 502.03051758 C423.0380967 501.21999903 420.68586492 501.1622603 416.95751953 503.32128906 C415.83957372 504.12677079 414.73204771 504.9468404 413.63330078 505.77832031 C413.03155029 506.22103271 412.4297998 506.66374512 411.80981445 507.11987305 C404.32314087 512.69141807 397.13580815 518.64531232 389.94580078 524.59082031 C386.28476111 527.59775423 382.61772151 530.59718494 378.94580078 533.59082031 C378.40697266 534.03216309 377.86814453 534.47350586 377.31298828 534.92822266 C357.24356091 551.33587951 336.3344715 567.25557121 311.94580078 576.59082031 C311.04216797 576.95046875 310.13853516 577.31011719 309.20751953 577.68066406 C298.15761276 581.40979279 282.98002299 581.61275979 272.26611328 576.86035156 C268.28729097 574.68338649 264.57781337 572.30587509 260.94580078 569.59082031 C259.95580078 568.88957031 258.96580078 568.18832031 257.94580078 567.46582031 C250.17307718 560.72945986 244.18686391 550.87126433 239.94580078 541.59082031 C239.94580078 540.93082031 239.94580078 540.27082031 239.94580078 539.59082031 C249.96058383 539.97632862 259.22643504 542.13468947 268.88330078 544.59082031 C271.10464191 545.14633674 273.32661643 545.69925651 275.54872131 546.25170898 C276.91833005 546.59322305 278.28737758 546.9369988 279.65574646 547.28344727 C293.63274915 550.81073227 307.2842717 551.65065922 320.14501953 544.34082031 C325.83010841 540.52910358 329.32716268 535.3127918 332.94580078 529.59082031 C328.53036555 529.59082031 324.60029705 531.23920589 320.45361328 532.63769531 C309.71524473 536.13486515 299.39498822 536.93177329 288.13330078 536.90332031 C286.869375 536.91943359 285.60544922 536.93554688 284.30322266 536.95214844 C261.89157437 536.96362394 241.0873283 529.28397207 224.94580078 513.59082031 C228.03475471 510.18231942 231.32661669 507.51906358 235.07080078 504.84082031 C255.98718138 489.86054773 276.37518607 471.12418075 291.94580078 450.59082031 C292.73728516 449.59308594 293.52876953 448.59535156 294.34423828 447.56738281 C321.49318229 413.2488048 343.14587975 369.97388575 338.28222656 325.07373047 C335.11197916 301.67647645 325.75590906 281.64884749 310.57470703 263.67675781 C309.04266842 261.71486664 307.96461009 259.8537033 306.94580078 257.59082031 C301.81477039 260.34564834 297.45534505 263.39311309 293.07080078 267.21582031 C292.46002686 267.74723633 291.84925293 268.27865234 291.2199707 268.82617188 C276.5057241 281.81653303 265.85829034 298.22328955 256.94580078 315.59082031 C256.56633301 316.32816406 256.18686523 317.06550781 255.79589844 317.82519531 C238.92603148 351.27032032 229.88305943 388.68090947 219.94580078 424.59082031 C214.01853539 424.59082031 211.20152426 421.48838885 206.94580078 417.59082031 C186.45179943 396.30277093 184.2421558 365.78117825 184.62065125 337.80044556 C185.03641898 316.21002853 188.48615394 295.05077228 192.36035156 273.84863281 C193.27281447 268.77110775 194.11289101 263.68191627 194.94580078 258.59082031 C169.44248908 271.42483813 152.9350849 291.74939714 143.76831055 318.61547852 C127.84833713 368.13816399 140.44238661 423.52745364 163.06005859 468.82226562 C167.24230682 476.88602515 172.36713839 484.24013998 177.74658203 491.53222656 C179.63359788 494.15661983 181.3349799 496.79143256 182.94580078 499.59082031 C167.81600037 500.80120435 152.24578066 493.03813336 140.83105469 483.55932617 C138.67736958 481.70756855 136.55150533 479.82727244 134.43945312 477.92822266 C123.32432895 467.97584439 111.7087312 459.47950584 97.59033203 454.46582031 C93.57659574 451.62003978 93.18455536 448.20706886 91.94580078 443.59082031 C91.25872551 441.41159125 90.55987657 439.23605438 89.85205078 437.06347656 C89.46758789 435.87294678 89.083125 434.68241699 88.68701172 433.45581055 C78.70006554 402.86047484 65.41624745 373.53281002 49.77514648 345.41162109 C44.89560355 336.60839639 40.29081887 327.66969933 35.69580078 318.71582031 C35.13125183 317.6171463 35.13125183 317.6171463 34.55529785 316.49627686 C10.34020176 269.34899491 -10.97585064 221.16810859 -15.05419922 167.59082031 C-15.13959961 166.51856201 -15.225 165.44630371 -15.31298828 164.34155273 C-15.94013003 155.85685676 -16.21223321 147.43529572 -16.18539429 138.92526245 C-16.17901279 136.84247266 -16.18160614 134.75979792 -16.18432617 132.67700195 C-16.17789185 125.75292179 -15.99994031 118.886878 -15.43945312 111.98193359 C-14.75587907 103.50055184 -15.58819859 97.4660886 -18.71044922 89.39160156 C-27.18667452 66.83371426 -27.80393125 31.80380204 -18.05419922 9.59082031 C-13.49758589 1.93666669 -9.38414799 -1.86924555 0 0 Z " fill="#050708" transform="translate(414.05419921875,0.4091796875)"/>
<path d="M0 0 C2.31781069 0.5918929 4.59759795 1.25993137 6.88330078 1.96582031 C7.74157471 2.22838623 8.59984863 2.49095215 9.48413086 2.76147461 C36.42827329 11.30226848 62.59925837 23.62106573 82.94580078 43.59082031 C83.51814453 44.15027344 84.09048828 44.70972656 84.68017578 45.28613281 C92.46660059 53.59432836 96.13174419 63.43421555 95.94580078 74.59082031 C82.61879077 72.55788658 72.56224165 64.74949386 62.04394531 56.86962891 C44.33029095 42.71149239 44.33029095 42.71149239 22.94580078 38.59082031 C20.93785745 39.23316604 18.93644992 39.89673065 16.94580078 40.59082031 C16.87506545 55.5097603 16.82250205 70.42868711 16.79036427 85.3477602 C16.77503168 92.2782032 16.7542103 99.2085408 16.71948242 106.13891602 C16.68587084 112.84983984 16.66885685 119.5606551 16.66116905 126.27165794 C16.65570332 128.80878591 16.64503545 131.34590919 16.62861061 133.88298988 C16.22483887 198.94825698 37.35803374 256.04538241 68.07861328 312.44238281 C82.95073516 339.7834391 96.99766985 367.42650517 107.94580078 396.59082031 C107.9603833 395.832771 107.97496582 395.07472168 107.98999023 394.29370117 C109.06975196 343.68988561 118.80924567 293.38501556 154.94580078 255.59082031 C155.55552734 254.91792969 156.16525391 254.24503906 156.79345703 253.55175781 C171.27483169 238.11725658 190.75911607 228.91277633 210.80078125 223.2109375 C213.80813848 222.34152168 216.77970396 221.36602597 219.75830078 220.40332031 C248.75443701 211.69719398 278.02094045 214.9622472 304.88330078 228.90332031 C314.19459827 233.94498483 323.48261241 239.60177968 327.94580078 249.59082031 C323.96289525 249.27218787 321.41977503 248.91023774 318.07080078 246.65332031 C314.15823148 244.07102457 310.51274997 243.36212729 305.94580078 242.59082031 C306.07341797 243.58082031 306.20103516 244.57082031 306.33251953 245.59082031 C306.71291827 249.77732861 306.68533687 253.42986727 305.94580078 257.59082031 C303.62904977 260.33003769 301.27962876 261.76553991 298.20751953 263.60644531 C279.84985607 274.77493997 267.73148509 295.09148962 257.94580078 313.59082031 C257.55440918 314.32961426 257.16301758 315.0684082 256.75976562 315.82958984 C239.25244776 349.4791471 229.95634764 388.15155098 219.94580078 424.59082031 C214.01853539 424.59082031 211.20152426 421.48838885 206.94580078 417.59082031 C186.45179943 396.30277093 184.2421558 365.78117825 184.62065125 337.80044556 C185.03641898 316.21002853 188.48615394 295.05077228 192.36035156 273.84863281 C193.27281447 268.77110775 194.11289101 263.68191627 194.94580078 258.59082031 C169.44248908 271.42483813 152.9350849 291.74939714 143.76831055 318.61547852 C127.84833713 368.13816399 140.44238661 423.52745364 163.06005859 468.82226562 C167.24230682 476.88602515 172.36713839 484.24013998 177.74658203 491.53222656 C179.63359788 494.15661983 181.3349799 496.79143256 182.94580078 499.59082031 C167.81600037 500.80120435 152.24578066 493.03813336 140.83105469 483.55932617 C138.67736958 481.70756855 136.55150533 479.82727244 134.43945312 477.92822266 C123.32432895 467.97584439 111.7087312 459.47950584 97.59033203 454.46582031 C93.57659574 451.62003978 93.18455536 448.20706886 91.94580078 443.59082031 C91.25872551 441.41159125 90.55987657 439.23605438 89.85205078 437.06347656 C89.46758789 435.87294678 89.083125 434.68241699 88.68701172 433.45581055 C78.70006554 402.86047484 65.41624745 373.53281002 49.77514648 345.41162109 C44.89560355 336.60839639 40.29081887 327.66969933 35.69580078 318.71582031 C35.13125183 317.6171463 35.13125183 317.6171463 34.55529785 316.49627686 C10.34020176 269.34899491 -10.97585064 221.16810859 -15.05419922 167.59082031 C-15.13959961 166.51856201 -15.225 165.44630371 -15.31298828 164.34155273 C-15.94013003 155.85685676 -16.21223321 147.43529572 -16.18539429 138.92526245 C-16.17901279 136.84247266 -16.18160614 134.75979792 -16.18432617 132.67700195 C-16.17789185 125.75292179 -15.99994031 118.886878 -15.43945312 111.98193359 C-14.75587907 103.50055184 -15.58819859 97.4660886 -18.71044922 89.39160156 C-27.18667452 66.83371426 -27.80393125 31.80380204 -18.05419922 9.59082031 C-13.49758589 1.93666669 -9.38414799 -1.86924555 0 0 Z " fill="#050708" transform="translate(414.05419921875,0.4091796875)"/>
<path d="M0 0 C31.64925967 23.55674385 60.32770288 35.47812703 100.15625 34.3984375 C93.80889638 47.51756686 82.4560824 56.94654798 69.15625 62.3984375 C52.76853251 67.91791179 36.26592308 63.57670654 21.26953125 56.18212891 C10.61447501 50.67628269 0.73187425 44.01642287 -9.14697266 37.24365234 C-16.98918904 31.87777588 -24.89584751 26.60634552 -32.84375 21.3984375 C-33.45041504 20.99979492 -34.05708008 20.60115234 -34.68212891 20.19042969 C-45.67895792 13.05824797 -57.68114466 8.67063318 -70.84375 8.3984375 C-71.72675781 8.35976563 -72.60976563 8.32109375 -73.51953125 8.28125 C-130.58647559 6.8604962 -192.16189703 37.67221552 -233.296875 75.92407227 C-238.30846329 80.7070915 -242.66155037 85.87588317 -246.84375 91.3984375 C-247.25802246 91.93243164 -247.67229492 92.46642578 -248.09912109 93.01660156 C-267.99543017 118.6954366 -282.09834549 148.69360152 -296.44116211 177.69268799 C-306.23106238 197.47853475 -316.38018437 216.81151252 -329.84375 234.3984375 C-330.53339844 235.31109375 -331.22304688 236.22375 -331.93359375 237.1640625 C-342.40531641 250.50234611 -356.363984 266.60907733 -372.84375 272.3984375 C-371.41422701 264.67084464 -368.80734434 257.76197857 -365.78125 250.5234375 C-365.52519989 249.90805115 -365.26914978 249.29266479 -365.00534058 248.65863037 C-355.01206351 224.72825387 -343.48748691 201.43583445 -330.38671875 179.05810547 C-328.81237815 176.34436076 -327.27602634 173.61227141 -325.75 170.87109375 C-317.81169624 156.61747225 -309.42177004 142.66401126 -300.89990234 128.75537109 C-296.11156817 120.93779868 -291.34683793 113.10580536 -286.58837891 105.27001953 C-285.40186656 103.31707267 -284.21398968 101.36495432 -283.02490234 99.41357422 C-274.3818334 85.21603235 -266.09548364 70.86588974 -258.0859375 56.3046875 C-257.52100586 55.29696289 -256.95607422 54.28923828 -256.37402344 53.25097656 C-254.83219156 50.4775459 -254.83219156 50.4775459 -253.72753906 47.78808594 C-251.51853211 42.85686839 -249.52114674 40.84004378 -244.46875 38.7890625 C-242.26939889 38.0482977 -240.06015007 37.33651347 -237.84375 36.6484375 C-235.35761794 35.79544872 -232.874887 34.93573936 -230.39453125 34.06640625 C-229.75848465 33.84641464 -229.12243805 33.62642303 -228.46711731 33.39976501 C-208.40003181 26.41184974 -189.48050404 16.2565466 -170.55419922 6.70715332 C-106.37224935 -25.67357471 -61.82823114 -46.02603969 0 0 Z " fill="#050708" transform="translate(431.84375,518.6015625)"/>
<path d="M0 0 C5.17989596 4.03262457 8.94287584 7.64763433 11.6328125 13.66796875 C7.64990697 13.34933631 5.10678675 12.98738618 1.7578125 10.73046875 C-2.1547568 8.14817301 -5.80023831 7.43927572 -10.3671875 6.66796875 C-10.23957031 7.65796875 -10.11195313 8.64796875 -9.98046875 9.66796875 C-9.60007001 13.85447705 -9.62765141 17.5070157 -10.3671875 21.66796875 C-12.68393852 24.40718613 -15.03335952 25.84268835 -18.10546875 27.68359375 C-36.46313222 38.85208841 -48.58150319 59.16863806 -58.3671875 77.66796875 C-58.7585791 78.4067627 -59.1499707 79.14555664 -59.55322266 79.90673828 C-77.06054052 113.55629554 -86.35664064 152.22869942 -96.3671875 188.66796875 C-102.29445289 188.66796875 -105.11146402 185.56553728 -109.3671875 181.66796875 C-129.86118886 160.37991937 -132.07083248 129.85832668 -131.69233704 101.87759399 C-130.35040541 32.19237974 -130.35040541 32.19237974 -115.3671875 12.66796875 C-109.29828176 7.22413757 -101.907465 3.81188115 -94.56640625 0.44140625 C-89.97733831 -2.10247268 -86.41633423 -5.14747951 -84.5546875 -10.14453125 C-84.1628125 -11.19640625 -83.7709375 -12.24828125 -83.3671875 -13.33203125 C-88.3171875 -13.33203125 -93.2671875 -13.33203125 -98.3671875 -13.33203125 C-95.69289791 -16.00632084 -93.25127573 -16.3863401 -89.6171875 -17.39453125 C-88.40546875 -17.73613281 -87.19375 -18.07773438 -85.9453125 -18.4296875 C-57.36263486 -25.6377645 -23.67308112 -16.91239039 0 0 Z " fill="#EC203B" transform="translate(730.3671875,236.33203125)"/>
<path d="M0 0 C37.31487803 2.88092808 72.43441509 27.97132846 96.140625 55.484375 C98.4566201 58.30022516 100.73042672 61.14661365 103 64 C103.91291391 65.12333025 104.82702736 66.24568646 105.7421875 67.3671875 C115.0377819 78.80298855 123.76718183 90.6496606 132.3203125 102.6484375 C139.08816526 112.1329707 146.12076538 121.29151915 153.56445312 130.25585938 C154.84879434 131.81629026 156.10599216 133.39897021 157.359375 134.984375 C167.11765592 147.30687572 178.30375915 157.77137904 191 167 C191.59538574 167.43441406 192.19077148 167.86882812 192.80419922 168.31640625 C205.2067405 177.24916912 218.7017306 183.66010578 233 189 C231.17725117 190.8986967 229.3337716 192.72390782 227.3046875 194.40234375 C221.03272916 199.59511897 216.10447493 205.70921502 211 212 C203.32874828 221.33562586 203.32874828 221.33562586 198 224 C193.19987861 223.72306992 189.72062254 221.14527752 185.875 218.5 C184.88040771 217.82396729 184.88040771 217.82396729 183.86572266 217.13427734 C170.39878863 207.86254855 157.31577056 196.75325221 147 184 C146.37689941 183.24541504 146.37689941 183.24541504 145.74121094 182.47558594 C131.99582374 165.82637823 120.20745535 147.87514588 108.29376221 129.90127563 C106.07476061 126.55470306 103.85337149 123.20971893 101.6315918 119.86499023 C100.49917478 118.1587761 99.36799586 116.45173962 98.23803711 114.74389648 C86.62219642 97.19200109 74.37549965 80.43216031 60 65 C59.27683594 64.21109375 58.55367188 63.4221875 57.80859375 62.609375 C49.09186417 53.46492096 32.80150349 36.56547136 19.75 35.8125 C10.09978613 39.97963781 7.11886394 48.61702258 3.4296875 57.90625 C2.42620167 60.44787592 1.45359378 62.9963691 0.4921875 65.5546875 C-2.60378301 72.70297543 -6.58122491 77.68014308 -13.5 81.3125 C-16.41273166 82.11350121 -18.99128417 82.04546137 -22 82 C-22.71099543 61.97362869 -19.69131596 45.52481589 -12 27 C-11.56107422 25.9392627 -11.12214844 24.87852539 -10.66992188 23.78564453 C-8.23440238 17.92142599 -5.77805501 12.06604904 -3.29296875 6.22265625 C-2.8755542 5.24047119 -2.45813965 4.25828613 -2.02807617 3.24633789 C-1 1 -1 1 0 0 Z " fill="#050708" transform="translate(342,317)"/>
<path d="M0 0 C0.99 0.33 1.98 0.66 3 1 C2.53851563 1.69222656 2.07703125 2.38445313 1.6015625 3.09765625 C-0.12802684 6.23200962 -0.87625708 8.94473767 -1.625 12.4375 C-1.98464844 14.07525391 -1.98464844 14.07525391 -2.3515625 15.74609375 C-3.48812241 21.44943354 -4.14388986 26.83794266 -4.11352539 32.65771484 C-4.11367142 33.39986237 -4.11381744 34.14200989 -4.1139679 34.90664673 C-4.11327539 37.34144083 -4.10551419 39.77615689 -4.09765625 42.2109375 C-4.09578972 43.90630044 -4.09436692 45.60166392 -4.09336853 47.29702759 C-4.08956189 51.74560044 -4.07974751 56.19414032 -4.06866455 60.6427002 C-4.05841051 65.18757684 -4.05386237 69.73245885 -4.04882812 74.27734375 C-4.0381235 83.18491027 -4.02106944 92.09245239 -4 101 C-4.66 101 -5.32 101 -6 101 C-16.13644489 74.19651529 -20.845133 36.98696968 -9 10 C-6.49262254 5.78813236 -4.0884555 2.725637 0 0 Z " fill="#E8203B" transform="translate(405,0)"/>
<path d="M0 0 C0.66 0 1.32 0 2 0 C2 31.02 2 62.04 2 94 C-9.16277456 82.83722544 -8.30190511 61.65643968 -8.375 47 C-8.2943461 30.81981962 -7.3595503 14.7191006 0 0 Z " fill="#E3213A" transform="translate(428,41)"/>
<path d="M0 0 C1.15177734 -0.020625 2.30355469 -0.04125 3.49023438 -0.0625 C14.31071929 -0.11104957 24.80597877 1.0915322 33.9375 7.25 C33.9375 10.54234294 33.47931964 12.62542032 31.30078125 15.13671875 C27.45233127 18.63331045 24.11427703 21.08522517 18.9375 22.25 C20.31487573 18.23265411 22.26776125 15.52258299 24.9375 12.25 C25.2675 11.26 25.5975 10.27 25.9375 9.25 C7.1275 9.25 -11.6825 9.25 -31.0625 9.25 C-28.89025971 4.90551942 -28.55908849 4.63888512 -24.3125 3.0625 C-23.47203125 2.73894531 -22.6315625 2.41539062 -21.765625 2.08203125 C-14.60720364 -0.12135567 -7.41826891 0.03244732 0 0 Z " fill="#E5213B" transform="translate(1085.0625,227.75)"/>
<path d="M0 0 C2.85735299 0.31748367 4.33522339 1.23244717 6.7265625 2.890625 C10.04644962 7.43122662 9.58667486 11.27565017 9.375 16.75 C9.35373047 18.17699219 9.35373047 18.17699219 9.33203125 19.6328125 C9.22523343 24.83030643 8.84911685 29.94247522 8.22265625 35.1015625 C7.4738981 41.48571098 7.93159106 46.92404874 10 53 C14.29 53.66 18.58 54.32 23 55 C17.35 60.65 17.35 60.65 12.0625 61.4375 C7.77793926 60.82541989 6.59402579 59.43533145 4 56 C-4.12037311 40.73929881 -2.04221848 16.55655699 0 0 Z " fill="#E6203B" transform="translate(944,540)"/>
<path d="M0 0 C0.66 0.33 1.32 0.66 2 1 C-26.5934468 37.61831062 -26.5934468 37.61831062 -42 40 C-41.484375 39.13375 -40.96875 38.2675 -40.4375 37.375 C-38.64569507 34.29885937 -37.15047496 31.14312808 -35.67431641 27.90527344 C-29.58715484 14.88943903 -20.43295816 9.68143002 -7.84228516 3.87255859 C-6.08046158 3.03810889 -4.35698155 2.12410515 -2.63671875 1.20703125 C-1.76660156 0.80871094 -0.89648438 0.41039062 0 0 Z " fill="#E3213B" transform="translate(783,500)"/>
</svg>
